<?xml version="1.0" encoding="UTF-8" standalone="no"?>
<!-- Created with Inkscape (http://www.inkscape.org/) -->

<svg
   xmlns:dc="http://purl.org/dc/elements/1.1/"
   xmlns:cc="http://creativecommons.org/ns#"
   xmlns:rdf="http://www.w3.org/1999/02/22-rdf-syntax-ns#"
   xmlns:svg="http://www.w3.org/2000/svg"
   xmlns="http://www.w3.org/2000/svg"
   xmlns:sodipodi="http://sodipodi.sourceforge.net/DTD/sodipodi-0.dtd"
   xmlns:inkscape="http://www.inkscape.org/namespaces/inkscape"
   width="16"
   height="16"
   id="svg2"
   version="1.1"
   inkscape:version="0.48.4 r9939"
   sodipodi:docname="Logo.svg"
   inkscape:export-filename="/home/marek/Clearly/favicon.png"
   inkscape:export-xdpi="90"
   inkscape:export-ydpi="90">
  <defs
     id="defs4" />
  <sodipodi:namedview
     id="base"
     pagecolor="#ffffff"
     bordercolor="#666666"
     borderopacity="1.0"
     inkscape:pageopacity="0.0"
     inkscape:pageshadow="2"
     inkscape:zoom="22.008699"
     inkscape:cx="5.1609294"
     inkscape:cy="4.3212368"
     inkscape:document-units="px"
     inkscape:current-layer="layer1"
     showgrid="false"
     inkscape:window-width="1333"
     inkscape:window-height="742"
     inkscape:window-x="0"
     inkscape:window-y="0"
     inkscape:window-maximized="1" />
  <metadata
     id="metadata7">
    <rdf:RDF>
      <cc:Work
         rdf:about="">
        <dc:format>image/svg+xml</dc:format>
        <dc:type
           rdf:resource="http://purl.org/dc/dcmitype/StillImage" />
        <dc:title></dc:title>
      </cc:Work>
    </rdf:RDF>
  </metadata>
  <g
     inkscape:label="Layer 1"
     inkscape:groupmode="layer"
     id="layer1"
     transform="translate(0,-1036.3622)">
    <rect
       style="color:#000000;fill:#f9f9f9;fill-opacity:1;fill-rule:nonzero;stroke:none;stroke-width:3;marker:none;visibility:visible;display:inline;overflow:visible;enable-background:accumulate"
       id="rect3793"
       width="16"
       height="16"
       x="0"
       y="1036.3623" />
    <path
       sodipodi:type="arc"
       style="color:#000000;fill:#ff6600;stroke:none;stroke-width:3;marker:none;visibility:visible;display:inline;overflow:visible;enable-background:accumulate"
       id="path3762"
       sodipodi:cx="7.6626506"
       sodipodi:cy="8.1124496"
       sodipodi:rx="2.0401607"
       sodipodi:ry="2.0401607"
       d="m 9.7028112,8.1124496 a 2.0401607,2.0401607 0 1 1 -4.0803213,0 2.0401607,2.0401607 0 1 1 4.0803213,0 z"
       transform="matrix(0.73523622,0,0,0.73523622,7.8661418,1043.8976)" />
    <path
       inkscape:connector-curvature="0"
       id="path3790"
       style="font-size:21.70963287px;font-style:normal;font-variant:normal;font-weight:bold;font-stretch:normal;text-indent:0;text-align:center;text-decoration:none;line-height:125%;letter-spacing:0px;word-spacing:0px;text-transform:none;direction:ltr;block-progression:tb;writing-mode:lr-tb;text-anchor:middle;color:#000000;fill:#ff6600;fill-opacity:1;fill-rule:nonzero;stroke:none;stroke-width:3;marker:none;visibility:visible;font-family:Dosis;-inkscape-font-specification:Dosis Bold"
       d="m 1,1047.0121 0,-5.2998 c -1.01e-6,-1.4944 0.4052451,-2.5898 1.2157394,-3.2864 0.8104899,-0.7091 1.8679289,-1.0637 3.1723201,-1.0637 1.3297083,0 2.4124751,0.3293 3.2483038,0.9878 0.8484754,0.6585 1.2727175,1.5323 1.2727271,2.6214 -9.6e-6,0.4686 -0.094989,0.7915 -0.2849388,0.9688 -0.1899687,0.1647 -0.5065672,0.2469 -0.9497965,0.2469 -0.8105007,0 -1.2220788,-0.2595 -1.2347353,-0.7788 -0.012672,-0.1646 -0.031667,-0.3039 -0.056988,-0.4179 -0.012672,-0.1266 -0.063327,-0.2849 -0.1519674,-0.4749 -0.075991,-0.2026 -0.1773024,-0.3672 -0.3039349,-0.4939 -0.1266463,-0.1393 -0.3166054,-0.2532 -0.5698779,-0.3419 -0.2532851,-0.1013 -0.5508877,-0.152 -0.8928086,-0.152 -1.3297191,0 -1.9945759,0.7282 -1.9945725,2.1846 l 0,5.2998 c -3.4e-6,1.4564 0.6775173,2.1846 2.0325644,2.1846 0.4052405,0 0.740835,-0.063 1.0067842,-0.19 0.2786002,-0.1266 0.4748912,-0.304 0.5888738,-0.5319 0.1266323,-0.2406 0.2089479,-0.4496 0.246947,-0.6269 0.050648,-0.1899 0.082309,-0.4179 0.09498,-0.6838 0.037985,-0.5192 0.4432305,-0.7788 1.2157394,-0.7788 0.4432293,0 0.7598278,0.089 0.9497965,0.2659 0.2026133,0.1647 0.3039252,0.4812 0.3039348,0.9498 -9.6e-6,1.1398 -0.4242518,2.0515 -1.2727272,2.7354 -0.8358287,0.6838 -1.9249275,1.0258 -3.2672997,1.0258 -1.3043912,0 -2.3618301,-0.3483 -3.1723202,-1.0448 -0.7978303,-0.7091 -1.19674439,-1.8109 -1.1967434,-3.3053" />
  </g>
</svg>
